# xmcd
#
# Track frame offsets: 
#        150
#        16175
#        26707
#        38595
#        52255
#        65132
#        75025
#        86060
#        96685
#        112527
#        124737
#        136999
#        157485
#        170615
#        181583
#        194702
#        204697
#        215929
#        225299
#        241521
#        254121
#        266053
#        279658
#        296163
#        308463
#
# Disc length: 4299 seconds
#
# Revision: 0
# Processed by: cddbd v1.5.1PL0 Copyright (c) Steve Scherf et al.
# Submitted via: ExactAudioCopy v0.95a5
#
DISCID=7110c919
DTITLE=Various Artist - Sony-ATV Country Music [CD2: 1967-1974)
DYEAR=2003
DGENRE=Country
TTITLE0=David Houston and Tammy Wynette - My Elusive Dreams
TTITLE1=Jim Ed Brown - Pop A Top
TTITLE2=Henson Cargill - Skip A Rope
TTITLE3=Tammy Wynette - D-I-V-O-R-C-E
TTITLE4=Merle Haggard - I Take A Lot Of Pride In What I Am
TTITLE5=Merle Haggard - Mama Tried
TTITLE6=Dusty Springfield - Son Of A Preacher Man
TTITLE7=Merle Haggard - Today I Started Loving You Again
TTITLE8=Joe South - Games People Play
TTITLE9=Merle Haggard - Okie From Muskogee
TTITLE10=Merle Haggard - Silver Wings
TTITLE11=Elvis Presley - Suspicous Minds
TTITLE12=Merle Haggard - The Fightin' Side Of Me
TTITLE13=Conway Teitty - Hello Darlin'
TTITLE14=Lynn Anderson - I Never Promised You A Rose Garden
TTITLE15=Charley Pride - Is Anybody Goin' To San Antone
TTITLE16=Freddie Hart - Easy Loving
TTITLE17=Dottie West - Country Sunshine
TTITLE18=Waylon Jennings - Honky Tonk Heroes (Like Me)
TTITLE19=Barbara Mandrel - Midnight Oil
TTITLE20=Tammy Wynette - Till I Get It Right
TTITLE21=Conway Twitty - You've Never Been This Far Before
TTITLE22=Cal Smith - Country Bumpkin
TTITLE23=Merle Haggard - If We Make It Through December
TTITLE24=Waylon Jennings - Old Five And Dimers Like Me
EXTD=
EXTT0=
EXTT1=
EXTT2=
EXTT3=
EXTT4=
EXTT5=
EXTT6=
EXTT7=
EXTT8=
EXTT9=
EXTT10=
EXTT11=
EXTT12=
EXTT13=
EXTT14=
EXTT15=
EXTT16=
EXTT17=
EXTT18=
EXTT19=
EXTT20=
EXTT21=
EXTT22=
EXTT23=
EXTT24=
PLAYORDER=
